<svg width="1669" height="1561" viewBox="0 0 1669 1561" fill="none" xmlns="http://www.w3.org/2000/svg">
<path d="M1119.8 311.006C1045.02 305.613 1027.74 422.314 1089.95 431.497C1140.77 439.009 1215.45 317.904 1119.8 311.006Z" fill="white"/>
<path d="M1580.96 59.0171C1447.96 59.0171 1450.07 217.802 1538.51 230.902C1708.27 256.046 1701.48 59.0177 1580.96 59.0171Z" fill="white"/>
<path d="M1576.51 704.274C1521.38 704.274 1522.25 769.762 1558.91 775.164C1629.28 785.535 1626.46 704.275 1576.51 704.274Z" fill="white"/>
<path d="M558.505 0C503.379 -6.29627e-10 504.25 65.4872 540.91 70.89C611.278 81.2604 608.461 0.000234472 558.505 0Z" fill="white"/>
<path d="M319.409 558.805C266.613 554.993 313.58 654.293 357.497 660.784C393.377 666.094 464.845 569.304 319.409 558.805Z" fill="white"/>
<path d="M141.081 155.784C140.875 87.5568 6.41967 7.69563 0.101582 154.481C-4.3873 258.395 141.39 258.576 141.081 155.784Z" fill="white"/>
<path d="M1119.8 1248.24C1045.02 1242.84 1027.74 1359.54 1089.95 1368.73C1140.77 1376.24 1215.45 1255.13 1119.8 1248.24Z" fill="white"/>
<path d="M1580.96 973.624C1447.96 973.624 1450.07 1132.41 1538.51 1145.51C1708.27 1170.65 1701.48 973.624 1580.96 973.624Z" fill="white"/>
<path d="M1576.51 1489.04C1521.38 1489.04 1522.25 1554.53 1558.91 1559.93C1629.28 1570.3 1626.46 1489.04 1576.51 1489.04Z" fill="white"/>
<path d="M812.505 959C757.379 959 758.25 1024.49 794.91 1029.89C865.278 1040.26 862.461 959 812.505 959Z" fill="white"/>
<path d="M319.409 1458.66C266.613 1454.85 313.58 1554.15 357.497 1560.64C393.377 1565.95 464.845 1469.16 319.409 1458.66Z" fill="white"/>
<path d="M141.081 1093.01C140.875 1024.79 6.41967 944.925 0.101582 1091.71C-4.3873 1195.62 141.39 1195.81 141.081 1093.01Z" fill="white"/>
</svg>
