<svg width="66" height="66" viewBox="0 0 66 66" fill="none" xmlns="http://www.w3.org/2000/svg">
<g clip-path="url(#clip0_262_1408)">
<path d="M63.7614 32.873H60.5769V27.3685C60.5769 27.1782 60.5394 26.9896 60.4665 26.8138C60.3936 26.6379 60.2867 26.4781 60.152 26.3436C60.0173 26.209 59.8574 26.1024 59.6815 26.0297C59.5055 25.9569 59.317 25.9196 59.1266 25.9199H50.5383C49.7086 22.0543 47.6517 18.5605 44.6744 15.9593C41.6971 13.3582 37.9588 11.7889 34.0169 11.4857V9.77955H42.8015C43.1857 9.77955 43.5542 9.62692 43.8259 9.35524C44.0975 9.08355 44.2502 8.71507 44.2502 8.33085V1.45035C44.2504 1.25983 44.213 1.07113 44.1402 0.895069C44.0674 0.719007 43.9606 0.559035 43.8259 0.424314C43.6911 0.289594 43.5312 0.18277 43.3551 0.10996C43.179 0.03715 42.9903 -0.00021618 42.7998 9.40793e-07H32.5665C32.1823 9.40793e-07 31.8138 0.152631 31.5421 0.424315C31.2705 0.695999 31.1178 1.06448 31.1178 1.4487V11.4939C27.1933 11.8155 23.4766 13.392 20.5178 15.9901C17.5589 18.5882 15.5151 22.0699 14.6888 25.9199H6.09722C5.713 25.9199 5.34452 26.0725 5.07284 26.3442C4.80115 26.6158 4.64852 26.9843 4.64852 27.3685V32.873H1.46402C1.27364 32.8727 1.08508 32.91 0.909122 32.9828C0.733167 33.0555 0.573269 33.1621 0.438569 33.2967C0.30387 33.4312 0.197012 33.591 0.124105 33.7669C0.0511981 33.9427 0.0136718 34.1313 0.0136719 34.3217V64.5496C0.0136719 65.3515 0.663772 66 1.46237 66H63.7631C64.1473 66 64.5158 65.8474 64.7875 65.5757C65.0591 65.304 65.2118 64.9355 65.2118 64.5513V34.3233C65.212 34.1329 65.1747 33.9444 65.102 33.7684C65.0293 33.5924 64.9226 33.4325 64.788 33.2978C64.6535 33.1631 64.4937 33.0563 64.3178 32.9834C64.142 32.9105 63.9535 32.8729 63.7631 32.873H63.7614ZM34.0152 5.0226V2.8974H41.3511V6.88215H34.0152V5.0226ZM32.6127 14.3286C39.6813 14.3286 45.8342 19.2077 47.5617 25.9199H17.6637C19.3896 19.2077 25.5425 14.3286 32.6127 14.3286ZM7.54592 28.8172H57.6779V32.873H7.54592V28.8172V28.8172ZM35.888 63.1026H29.3375V52.2423H35.888V63.1026ZM62.3127 63.1026H44.9283V44.6061C44.9283 44.2217 44.7756 43.853 44.5038 43.5811C44.2319 43.3093 43.8632 43.1566 43.4788 43.1566C43.0944 43.1566 42.7257 43.3093 42.4538 43.5811C42.182 43.853 42.0293 44.2217 42.0293 44.6061V63.1026H38.7854V50.7936C38.7856 50.6032 38.7483 50.4147 38.6756 50.2387C38.6029 50.0627 38.4962 49.9028 38.3616 49.7681C38.2271 49.6334 38.0673 49.5266 37.8914 49.4537C37.7156 49.3808 37.5271 49.3433 37.3367 49.3433H27.8871C27.6967 49.3433 27.5082 49.3808 27.3323 49.4537C27.1565 49.5266 26.9967 49.6334 26.8621 49.7681C26.7276 49.9028 26.6209 50.0627 26.5482 50.2387C26.4755 50.4147 26.4382 50.6032 26.4384 50.7936V63.1026H23.1945V44.6061C23.1945 44.2219 23.0419 43.8534 22.7702 43.5817C22.4985 43.31 22.13 43.1574 21.7458 43.1574C21.3616 43.1574 20.9931 43.31 20.7214 43.5817C20.4498 43.8534 20.2971 44.2219 20.2971 44.6061V63.1026H2.91272V35.7704H62.3127V63.1026Z" fill="url(#paint0_linear_262_1408)"/>
<path d="M16.2246 38.016H8.03561C7.84523 38.016 7.65671 38.0535 7.48084 38.1264C7.30497 38.1993 7.14519 38.3062 7.01065 38.4409C6.8761 38.5756 6.76942 38.7355 6.69672 38.9114C6.62401 39.0874 6.5867 39.276 6.58692 39.4663V45.6951C6.58692 46.4953 7.23536 47.1454 8.03561 47.1454H16.2229C16.4133 47.1454 16.6018 47.1079 16.7777 47.035C16.9536 46.9621 17.1133 46.8552 17.2479 46.7205C17.3824 46.5858 17.4891 46.4259 17.5618 46.25C17.6345 46.074 17.6718 45.8855 17.6716 45.6951V39.468C17.6718 39.2776 17.6345 39.089 17.5618 38.9131C17.4891 38.7371 17.3824 38.5772 17.2479 38.4425C17.1133 38.3078 16.9536 38.201 16.7777 38.1281C16.6018 38.0552 16.4133 38.0176 16.2229 38.0176L16.2246 38.016ZM14.7759 44.2464H9.48596V40.9134H14.7759V44.2464ZM16.2246 50.9404H8.03561C7.84537 50.9404 7.65699 50.9779 7.48122 51.0507C7.30546 51.1235 7.14575 51.2302 7.01123 51.3648C6.87671 51.4993 6.76999 51.659 6.69719 51.8347C6.62439 52.0105 6.58692 52.1989 6.58692 52.3891V58.6195C6.58692 59.4198 7.23536 60.0682 8.03561 60.0682H16.2229C16.6071 60.0682 16.9756 59.9156 17.2473 59.6439C17.519 59.3722 17.6716 59.0038 17.6716 58.6195V52.3875C17.6716 52.0033 17.519 51.6348 17.2473 51.3631C16.9756 51.0914 16.6071 50.9388 16.2229 50.9388L16.2246 50.9404ZM14.7759 57.1708H9.48596V53.8378H14.7759V57.1708ZM36.706 38.016H28.5204C28.33 38.016 28.1415 38.0535 27.9656 38.1264C27.7897 38.1993 27.6299 38.3062 27.4954 38.4409C27.3608 38.5756 27.2542 38.7355 27.1815 38.9114C27.1088 39.0874 27.0714 39.276 27.0717 39.4663V45.6951C27.0717 46.4953 27.7201 47.1454 28.5204 47.1454H36.706C36.8965 47.1457 37.0852 47.1083 37.2613 47.0355C37.4374 46.9627 37.5973 46.8558 37.7321 46.7211C37.8668 46.5864 37.9736 46.4264 38.0464 46.2504C38.1192 46.0743 38.1566 45.8856 38.1564 45.6951V39.468C38.1566 39.2775 38.1192 39.0888 38.0464 38.9127C37.9736 38.7366 37.8668 38.5767 37.7321 38.442C37.5973 38.3072 37.4374 38.2004 37.2613 38.1276C37.0852 38.0548 36.8965 38.0174 36.706 38.0176V38.016ZM35.2573 44.2464H29.9691V40.9134H35.2573V44.2464ZM57.1891 38.016H49.0051C48.8147 38.016 48.6262 38.0535 48.4503 38.1264C48.2745 38.1993 48.1147 38.3062 47.9801 38.4409C47.8456 38.5756 47.7389 38.7355 47.6662 38.9114C47.5935 39.0874 47.5562 39.276 47.5564 39.4663V45.6951C47.5564 46.4953 48.2049 47.1454 49.0051 47.1454H57.1908C57.3811 47.1454 57.5697 47.1079 57.7455 47.035C57.9214 46.9621 58.0812 46.8552 58.2157 46.7205C58.3503 46.5858 58.457 46.4259 58.5297 46.25C58.6024 46.074 58.6397 45.8855 58.6395 45.6951V39.468C58.6397 39.2776 58.6024 39.089 58.5297 38.9131C58.457 38.7371 58.3503 38.5772 58.2157 38.4425C58.0812 38.3078 57.9214 38.201 57.7455 38.1281C57.5697 38.0552 57.3811 38.0176 57.1908 38.0176L57.1891 38.016ZM55.7404 44.2464H50.4522V40.9134H55.7404V44.2464ZM57.1891 50.9404H49.0051C48.6209 50.9404 48.2524 51.0931 47.9807 51.3648C47.709 51.6364 47.5564 52.0049 47.5564 52.3891V58.6195C47.5564 59.4198 48.2049 60.0682 49.0051 60.0682H57.1908C57.575 60.0682 57.9435 59.9156 58.2152 59.6439C58.4868 59.3722 58.6395 59.0038 58.6395 58.6195V52.3875C58.6395 52.0033 58.4868 51.6348 58.2152 51.3631C57.9435 51.0914 57.575 50.9388 57.1908 50.9388L57.1891 50.9404ZM55.7404 57.1708H50.4522V53.8378H55.7404V57.1708Z" fill="url(#paint1_linear_262_1408)"/>
</g>
<defs>
<linearGradient id="paint0_linear_262_1408" x1="0.0136715" y1="32.2221" x2="64.8179" y2="32.2221" gradientUnits="userSpaceOnUse">
<stop stop-color="#013BFF"/>
<stop offset="1" stop-color="#0185FF"/>
</linearGradient>
<linearGradient id="paint1_linear_262_1408" x1="6.58691" y1="48.7822" x2="58.325" y2="48.7822" gradientUnits="userSpaceOnUse">
<stop stop-color="#013BFF"/>
<stop offset="1" stop-color="#0185FF"/>
</linearGradient>
<clipPath id="clip0_262_1408">
<rect width="66" height="66" fill="white"/>
</clipPath>
</defs>
</svg>
