<svg width="92" height="62" viewBox="0 0 92 62" fill="none" xmlns="http://www.w3.org/2000/svg">
<g clip-path="url(#clip0_262_1405)">
<path d="M75.2376 45.2258C76.4987 43.2593 77.532 41.1749 78.3204 39.0072C81.5579 39.1226 84.7126 38.0435 87.0926 36.0066C89.4726 33.9697 90.8837 31.1413 91.0164 28.1417C88.667 28.0535 86.3399 28.595 84.3142 29.7012C82.2884 30.8075 80.6499 32.4316 79.5951 34.3789C80.2588 30.9168 80.3068 27.3774 79.7372 23.9009C82.6767 23.0772 85.1745 21.2595 86.7347 18.8084C88.2949 16.3574 88.8035 13.4524 88.1594 10.6701C85.8133 11.1389 83.6678 12.2367 81.99 13.8269C80.3123 15.4172 79.1763 17.4296 78.7236 19.6136C78.1955 17.9168 77.522 16.2618 76.7096 14.6644L75.9351 13.1873C76.6205 10.5628 76.2716 7.79779 74.9512 5.39065C73.6309 2.98351 71.426 1.0926 68.734 0.0587769C67.702 2.37509 67.5271 4.94298 68.2368 7.36114C68.9464 9.7793 70.5007 11.9115 72.6566 13.4244L73.9496 15.8889C75.0918 18.1289 75.9317 20.4909 76.4503 22.9213C75.3609 20.9886 73.6931 19.3881 71.6469 18.3115C69.6007 17.235 67.2628 16.728 64.9135 16.8515C65.0933 19.7266 66.4481 22.4304 68.7024 24.413C70.9567 26.3957 73.9412 27.5083 77.0492 27.5248C77.2329 31.7025 76.4533 35.8685 74.7625 39.745C74.4398 37.2788 73.2517 34.9792 71.381 33.1998C69.5102 31.4204 67.0604 30.2597 64.4084 29.8963C63.972 32.6496 64.6439 35.4554 66.296 37.7793C67.9482 40.1031 70.4652 41.7826 73.3675 42.4978C72.4395 44.1336 71.3522 45.6875 70.1191 47.14C68.1813 49.4082 65.8968 51.4024 63.3378 53.0595C64.7413 50.5662 65.0946 47.6786 64.3293 44.9574C63.5639 42.2362 61.7344 39.8758 59.1961 38.3345C57.4739 40.7721 56.8318 43.731 57.4031 46.596C57.9744 49.4611 59.7153 52.0119 62.2639 53.7182C60.1851 54.962 57.9571 55.9774 55.6249 56.7438C55.2422 56.8688 54.9288 57.1295 54.7536 57.4686C54.5784 57.8077 54.5558 58.1973 54.6907 58.5519C54.8255 58.9065 55.1069 59.1969 55.4728 59.3592C55.8387 59.5216 56.2593 59.5426 56.6419 59.4176C58.7123 58.7351 60.7089 57.8736 62.6052 56.8446C64.3378 59.2509 66.9981 60.9519 70.0408 61.5989C73.0835 62.2459 76.278 61.7899 78.9695 60.3243C77.643 58.2364 75.6296 56.5971 73.2244 55.6467C70.8192 54.6964 68.1487 54.485 65.6044 55.0435C67.9665 53.4461 70.1046 51.582 71.9691 49.4945C74.7393 50.7531 77.9205 50.9954 80.8754 50.1727C83.8302 49.3501 86.3405 47.5234 87.9035 45.0584C85.9767 44.0128 83.778 43.4756 81.5453 43.5051C79.3127 43.5346 77.1314 44.1297 75.2376 45.2258V45.2258ZM35.3949 56.7438C33.0635 55.9781 30.8361 54.9638 28.7575 53.7213C31.3055 52.0145 33.0458 49.4636 33.6168 46.5987C34.1878 43.7338 33.5456 40.7751 31.8236 38.3376C29.2865 39.879 27.4579 42.239 26.6929 44.9595C25.9279 47.6799 26.281 50.5667 27.6836 53.0595C25.1247 51.4035 22.8403 49.4104 20.9024 47.1431C19.6687 45.6904 18.5813 44.136 17.654 42.4993C20.5558 41.7835 23.0721 40.1039 24.7239 37.7801C26.3757 35.4564 27.0475 32.6509 26.6114 29.8978C23.9592 30.2616 21.5094 31.4225 19.6386 33.2022C17.7679 34.9819 16.5799 37.2817 16.2572 39.7481C14.5652 35.8718 13.784 31.7059 13.9656 27.5279C17.073 27.5096 20.0564 26.3963 22.3102 24.414C24.5641 22.4318 25.9195 19.7291 26.1012 16.8546C23.7509 16.7299 21.4117 17.2368 19.3648 18.3144C17.318 19.392 15.6505 20.9944 14.5628 22.929C15.0813 20.5002 15.921 18.1395 17.0652 15.9029L18.3649 13.4244C20.5208 11.9115 22.075 9.7793 22.7847 7.36114C23.4944 4.94298 23.3195 2.37509 22.2874 0.0587769C19.5961 1.09315 17.3919 2.98429 16.0722 5.39138C14.7525 7.79846 14.4041 10.5632 15.0897 13.1873L14.3085 14.6753C13.4967 16.2694 12.8243 17.9213 12.2979 19.6151C11.8448 17.4301 10.7079 15.4169 9.02884 13.8263C7.34979 12.2357 5.20281 11.1381 2.85535 10.6701C2.21175 13.4518 2.72035 16.356 4.28022 18.8064C5.84008 21.2568 8.33716 23.0741 11.2759 23.8978C10.7069 27.3743 10.7555 30.9137 11.4197 34.3758C10.3649 32.4289 8.72656 30.8052 6.70111 29.6992C4.67567 28.5932 2.34902 28.0519 0 28.1401C0.132696 31.139 1.54339 33.9668 3.92276 36.0034C6.30212 38.0399 9.45594 39.119 12.6927 39.0041C13.4829 41.1716 14.5174 43.256 15.7788 45.2227C13.885 44.1236 11.7025 43.5261 9.4681 43.4953C7.23374 43.4644 5.03293 44.0012 3.10458 45.0475C4.6671 47.5142 7.17796 49.3425 10.1339 50.1661C13.0899 50.9896 16.2726 50.7475 19.044 49.4883C20.9085 51.5782 23.0472 53.4443 25.4104 55.0435C22.8658 54.4846 20.195 54.6958 17.7894 55.6462C15.3839 56.5966 13.3702 58.2361 12.0436 60.3243C14.7349 61.79 17.9293 62.2463 20.972 61.5996C24.0146 60.9529 26.6751 59.2522 28.4079 56.8461C30.3048 57.8747 32.3019 58.7357 34.3729 59.4176C34.751 59.5261 35.1598 59.4947 35.5135 59.3298C35.8671 59.165 36.1381 58.8796 36.2695 58.5336C36.4009 58.1876 36.3825 57.8078 36.2182 57.4741C36.0539 57.1404 35.7564 56.8786 35.3882 56.7438H35.3949Z" fill="url(#paint0_linear_262_1405)"/>
</g>
<defs>
<linearGradient id="paint0_linear_262_1405" x1="-5.9315e-07" y1="30.2439" x2="90.4667" y2="30.2439" gradientUnits="userSpaceOnUse">
<stop stop-color="#013BFF"/>
<stop offset="1" stop-color="#0185FF"/>
</linearGradient>
<clipPath id="clip0_262_1405">
<rect width="92" height="62" fill="white"/>
</clipPath>
</defs>
</svg>
