<svg width="63" height="64" viewBox="0 0 63 64" fill="none" xmlns="http://www.w3.org/2000/svg">
<path fill-rule="evenodd" clip-rule="evenodd" d="M1.53613 9.93219H13.2142V34.4213H1.53613V9.93219Z" stroke="url(#paint0_linear_262_1419)" stroke-width="2"/>
<path d="M6.94141 41.1063V35.011M6.94141 8.60494V2.5097V8.60494Z" stroke="url(#paint1_linear_262_1419)" stroke-width="2" stroke-linecap="square"/>
<path fill-rule="evenodd" clip-rule="evenodd" d="M25.833 30.1897H37.5111V54.6788H25.833V30.1897Z" stroke="url(#paint2_linear_262_1419)" stroke-width="2"/>
<path d="M31.2383 61.3638V55.2685M31.2383 28.8625V22.7672V28.8625Z" stroke="url(#paint3_linear_262_1419)" stroke-width="2" stroke-linecap="square"/>
<path fill-rule="evenodd" clip-rule="evenodd" d="M50.1289 9.93219H60.9388V34.4213H50.1289V9.93219Z" stroke="url(#paint4_linear_262_1419)" stroke-width="2"/>
<path d="M55.5332 41.1063V35.011M55.5332 8.60494V2.5097V8.60494Z" stroke="url(#paint5_linear_262_1419)" stroke-width="2" stroke-linecap="square"/>
<defs>
<linearGradient id="paint0_linear_262_1419" x1="7.37516" y1="9.93219" x2="7.37516" y2="34.4213" gradientUnits="userSpaceOnUse">
<stop stop-color="#013BFF"/>
<stop offset="1" stop-color="#0185FF"/>
</linearGradient>
<linearGradient id="paint1_linear_262_1419" x1="7.44141" y1="2.5097" x2="7.44141" y2="41.1063" gradientUnits="userSpaceOnUse">
<stop stop-color="#013BFF"/>
<stop offset="1" stop-color="#0185FF"/>
</linearGradient>
<linearGradient id="paint2_linear_262_1419" x1="31.672" y1="30.1897" x2="31.672" y2="54.6788" gradientUnits="userSpaceOnUse">
<stop stop-color="#013BFF"/>
<stop offset="1" stop-color="#0185FF"/>
</linearGradient>
<linearGradient id="paint3_linear_262_1419" x1="31.7383" y1="22.7672" x2="31.7383" y2="61.3638" gradientUnits="userSpaceOnUse">
<stop stop-color="#013BFF"/>
<stop offset="1" stop-color="#0185FF"/>
</linearGradient>
<linearGradient id="paint4_linear_262_1419" x1="55.5338" y1="9.93219" x2="55.5338" y2="34.4213" gradientUnits="userSpaceOnUse">
<stop stop-color="#013BFF"/>
<stop offset="1" stop-color="#0185FF"/>
</linearGradient>
<linearGradient id="paint5_linear_262_1419" x1="56.0332" y1="2.5097" x2="56.0332" y2="41.1063" gradientUnits="userSpaceOnUse">
<stop stop-color="#013BFF"/>
<stop offset="1" stop-color="#0185FF"/>
</linearGradient>
</defs>
</svg>
