<svg width="68" height="61" viewBox="0 0 68 61" fill="none" xmlns="http://www.w3.org/2000/svg">
<g clip-path="url(#clip0_262_1429)">
<path fill-rule="evenodd" clip-rule="evenodd" d="M56.0475 54.8238C51.7851 54.8238 48.3202 51.4047 48.3202 47.1988C48.3202 42.9943 51.7851 39.5738 56.0475 39.5738C60.3083 39.5738 63.7747 42.9943 63.7747 47.1988C63.7747 51.4047 60.3083 54.8238 56.0475 54.8238ZM21.4648 54.2747C22.9732 52.2968 23.902 49.8645 23.902 47.1988C23.902 40.6824 18.5393 35.38 11.9525 35.38C11.7068 35.38 11.4765 35.4379 11.2339 35.4532C11.2787 27.3295 15.8208 19.8906 22.9206 15.9668C24.6361 20.3786 28.9402 23.5338 34 23.5338C39.0691 23.5338 43.3747 20.3679 45.0855 15.9424C52.1792 19.8723 56.7182 27.3204 56.7599 35.4501C56.5204 35.4379 56.2932 35.38 56.0475 35.38C49.453 35.38 44.0949 40.6824 44.0949 47.1988C44.0949 49.8645 45.0206 52.2968 46.5321 54.2747C42.7921 56.7224 38.5158 58.0735 34.0124 58.0735C29.4904 58.0735 25.2048 56.7224 21.4633 54.2763L21.4648 54.2747ZM11.9525 54.8253C7.69018 54.8253 4.22527 51.4047 4.22527 47.2003C4.22527 42.9943 7.69018 39.5753 11.9525 39.5753C16.2103 39.5753 19.6798 42.9943 19.6798 47.2003C19.6798 51.4047 16.2103 54.8253 11.9525 54.8253ZM41.7257 11.7654C41.7257 15.9683 38.2593 19.3904 33.9985 19.3904C29.7407 19.3904 26.2712 15.9683 26.2712 11.7654C26.2712 7.56095 29.7407 4.14037 33.9985 4.14037C38.2593 4.14037 41.7257 7.56095 41.7257 11.7654ZM59.7287 35.5691C59.7287 26.0409 54.2625 17.3164 45.7733 12.9793C45.8165 12.5736 45.8969 12.1802 45.8969 11.7654C45.8969 5.2765 40.5605 0 34 0C27.4395 0 22.1 5.2765 22.1 11.7669C22.1 12.1908 22.1835 12.5919 22.2283 13.0052C13.7314 17.3392 8.26509 26.0562 8.26509 35.5706C8.26509 35.7155 8.28055 35.8619 8.28364 36.0083C3.49273 37.5516 0 41.9558 0 47.1988C0 53.7166 5.35964 59.0175 11.9525 59.0175C14.7436 59.0175 17.2797 58.0293 19.3182 56.4341C23.6231 59.4124 28.7548 61.0069 34.0124 61C39.3025 61 44.3422 59.414 48.6787 56.4341C50.7141 58.0293 53.2533 59.019 56.0475 59.019C62.6404 59.019 68 53.7166 68 47.2003C68 41.9527 64.5026 37.547 59.7102 36.0083C59.7133 35.8619 59.7287 35.7155 59.7287 35.5706V35.5691Z" fill="url(#paint0_linear_262_1429)"/>
</g>
<defs>
<linearGradient id="paint0_linear_262_1429" x1="34" y1="0" x2="34" y2="61" gradientUnits="userSpaceOnUse">
<stop stop-color="#013BFF"/>
<stop offset="1" stop-color="#0185FF"/>
</linearGradient>
<clipPath id="clip0_262_1429">
<rect width="68" height="61" fill="white"/>
</clipPath>
</defs>
</svg>
