<svg width="570" height="450" viewBox="0 0 570 450" fill="none" xmlns="http://www.w3.org/2000/svg">
<path d="M375.204 262.211H378.545V255.529H375.204V262.211ZM375.204 248.846H378.545V242.164H375.204V248.846ZM375.204 235.481H378.545V228.798H375.204V235.481ZM375.204 222.116H378.545V215.433H375.204V222.116ZM375.204 208.75H378.545V204.685H372.586V208.026H375.204V208.75ZM238.934 207.971H245.616V204.629H238.934V207.971ZM252.299 207.971H258.982V204.629H252.299V207.971ZM265.664 207.971H272.347V204.629H265.664V207.971ZM279.029 207.971H285.712V204.629H279.029V207.971ZM292.395 207.971H299.077V204.629H292.395V207.971ZM305.76 207.971H312.443V204.629H305.76V207.971ZM319.125 207.971H325.808V204.629H319.125V207.971ZM332.49 207.971H339.173V204.629H332.49V207.971ZM345.856 207.971H352.538V204.629H345.856V207.971ZM359.221 207.971H365.904V204.629H359.221V207.971Z" fill="#399FFF"/>
<path d="M188.647 295.012H191.988V288.329H188.647V295.012ZM188.647 281.647H191.988V274.964H188.647V281.647ZM188.647 268.281H191.988V261.599H188.647V268.281ZM188.647 254.916H191.988V248.234H188.647V254.916ZM188.647 241.551H191.988V234.868H188.647V241.551ZM188.647 228.186H191.988V221.503H188.647V228.186ZM188.647 214.82H191.988V208.138H188.647V214.82ZM188.647 201.455H191.988V194.772H188.647V201.455ZM188.647 188.09H191.988V181.407H188.647V188.09ZM188.647 174.725H191.988V168.042H188.647V174.725ZM188.647 161.359H191.988V154.677H188.647V161.359ZM188.647 147.994H191.988V141.311H188.647V147.994ZM188.647 134.629H191.988V127.946H188.647V134.629ZM188.647 121.263H191.988V114.581H188.647V121.263ZM188.647 107.898H191.988V101.216H188.647V107.898ZM188.647 94.5329H191.988V87.8503H188.647V94.5329ZM188.647 81.1677H191.988V74.485H188.647V81.1677ZM188.647 67.8024H191.988V61.1198H188.647V67.8024ZM68.9164 58.3353H72.2577V51.6527H68.9164V58.3353ZM188.647 54.4371H191.988V47.7545H188.647V54.4371ZM68.9164 44.9701H72.2577V38.2874H68.9164V44.9701ZM188.647 41.0719H191.988V34.3892H188.647V41.0719ZM68.9164 31.6048H72.2577V24.9222H68.9164V31.6048ZM188.647 27.7066H191.988V21.024H188.647V27.7066ZM68.9164 18.2395H72.2577V12.6707H71.7009V11H68.9164V18.2395ZM78.3835 14.3413H85.0661V11H78.3835V14.3413ZM91.7488 14.3413H98.4314V11H91.7488V14.3413ZM105.114 14.3413H111.797V11H105.114V14.3413ZM118.479 14.3413H125.162V11H118.479V14.3413ZM131.845 14.3413H138.527V11H131.845V14.3413ZM145.21 14.3413H151.892V11H145.21V14.3413ZM158.575 14.3413H165.258V11H158.575V14.3413ZM171.94 14.3413H178.623V11H171.94V14.3413ZM185.306 14.3413H191.988V11H185.306V14.3413Z" fill="#399FFF"/>
<path d="M248.791 51.6526H131.845V263.826H248.791V51.6526Z" fill="white"/>
<path d="M250.461 265.497H130.174V49.9819H250.461V265.497ZM133.515 262.156H247.12V53.3233H133.515V262.156Z" fill="#399FFF"/>
<path d="M186.642 124.66L174.502 112.799L177.175 110.014L186.475 119.036L203.182 100.491L206.077 103.109L186.642 124.66Z" fill="#2E2E76"/>
<path d="M248.791 51.6526H131.845V73.928H248.791V51.6526Z" fill="white"/>
<path d="M250.461 75.5987H130.174V49.9819H250.461V75.5987ZM133.515 72.2574H247.12V53.3233H133.515V72.2574Z" fill="#399FFF"/>
<path d="M142.982 67.2454C145.443 67.2454 147.438 65.2508 147.438 62.7903C147.438 60.3298 145.443 58.3352 142.982 58.3352C140.522 58.3352 138.527 60.3298 138.527 62.7903C138.527 65.2508 140.522 67.2454 142.982 67.2454Z" fill="#2563F6"/>
<path d="M157.461 67.2454C159.921 67.2454 161.916 65.2508 161.916 62.7903C161.916 60.3298 159.921 58.3352 157.461 58.3352C155 58.3352 153.006 60.3298 153.006 62.7903C153.006 65.2508 155 67.2454 157.461 67.2454Z" fill="#89EFD7"/>
<path d="M171.94 67.2454C174.401 67.2454 176.396 65.2508 176.396 62.7903C176.396 60.3298 174.401 58.3352 171.94 58.3352C169.48 58.3352 167.485 60.3298 167.485 62.7903C167.485 65.2508 169.48 67.2454 171.94 67.2454Z" fill="#399FFF"/>
<path d="M282.037 294.789H107.509V398.649H282.037V294.789Z" fill="white"/>
<path d="M283.707 400.319H105.838V293.119H283.707V400.319ZM109.179 396.978H280.366V296.46H109.179V396.978Z" fill="#399FFF"/>
<path d="M143.038 341.79C152.603 341.79 160.357 334.036 160.357 324.471C160.357 314.906 152.603 307.152 143.038 307.152C133.473 307.152 125.719 314.906 125.719 324.471C125.719 334.036 133.473 341.79 143.038 341.79Z" fill="white"/>
<path d="M143.038 343.183C132.679 343.183 124.326 334.774 124.326 324.471C124.326 314.113 132.735 305.76 143.038 305.76C153.34 305.76 161.749 314.169 161.749 324.471C161.805 334.774 153.396 343.183 143.038 343.183ZM143.038 308.489C134.239 308.489 127.111 315.617 127.111 324.416C127.111 333.214 134.294 340.343 143.038 340.343C151.781 340.343 158.964 333.159 158.964 324.416C158.964 315.673 151.836 308.489 143.038 308.489Z" fill="#2E2E76"/>
<path d="M139.195 333.994L130.062 324.805L132.012 322.856L139.195 330.04L153.285 315.895L155.289 317.9L139.195 333.994Z" fill="#2E2E76"/>
<path d="M208.639 315.283H175.281V318.067H208.639V315.283Z" fill="#2E2E76"/>
<path d="M263.993 323.469H175.281V326.253H263.993V323.469Z" fill="#2E2E76"/>
<path d="M263.993 331.655H175.281V334.44H263.993V331.655Z" fill="#2E2E76"/>
<path d="M142.871 386.23C152.436 386.23 160.19 378.476 160.19 368.911C160.19 359.346 152.436 351.592 142.871 351.592C133.306 351.592 125.552 359.346 125.552 368.911C125.552 378.476 133.306 386.23 142.871 386.23Z" fill="white"/>
<path d="M142.871 387.678C132.512 387.678 124.159 379.269 124.159 368.967C124.159 358.664 132.568 350.255 142.871 350.255C153.173 350.255 161.582 358.664 161.582 368.967C161.582 379.269 153.173 387.678 142.871 387.678ZM142.871 352.984C134.072 352.984 126.944 360.168 126.944 368.911C126.944 377.654 134.127 384.838 142.871 384.838C151.614 384.838 158.798 377.654 158.798 368.911C158.798 360.168 151.669 352.984 142.871 352.984Z" fill="#2E2E76"/>
<path d="M139.418 378.434L130.229 369.301L132.234 367.352L139.418 374.536L153.507 360.391L155.456 362.395L139.418 378.434Z" fill="#2E2E76"/>
<path d="M208.639 359.778H175.281V362.562H208.639V359.778Z" fill="#2E2E76"/>
<path d="M263.993 367.964H175.281V370.749H263.993V367.964Z" fill="#2E2E76"/>
<path d="M263.993 376.095H175.281V378.879H263.993V376.095Z" fill="#2E2E76"/>
<path d="M12.6704 81.7245V163.03H97.874V47.1975H44.9698L12.6704 81.7245Z" fill="white"/>
<path d="M11 164.701H99.5449V45.5269H44.2462L11 81.0562V164.701ZM96.2036 161.359H14.3413V82.3927L45.694 48.8682H96.2036V161.359Z" fill="#399FFF"/>
<path d="M12.6702 81.7245V82.0029H45.248V47.1975H44.9696L12.6702 81.7245Z" fill="white"/>
<path d="M10.9998 83.6736H46.9189V45.5269H44.2459L10.9998 81.0562V83.6736ZM43.5776 80.3323H16.2346L43.5776 51.1514V80.3323Z" fill="#399FFF"/>
<path d="M51.3739 72.2573H82.5596V75.0418H51.3739V72.2573Z" fill="#2E2E76"/>
<path d="M31.3262 87.8501H82.2812V90.6345H31.3262V87.8501Z" fill="#2E2E76"/>
<path d="M31.3262 103.443H82.2812V106.228H31.3262V103.443Z" fill="#2E2E76"/>
<path d="M31.3262 119.036H82.2812V121.82H31.3262V119.036Z" fill="#2E2E76"/>
<path d="M31.3262 134.629H82.2812V137.413H31.3262V134.629Z" fill="#2E2E76"/>
<path d="M362.086 58.9479C333.016 54.6599 306.007 74.7634 301.719 103.833C299.993 115.528 302.22 126.944 307.399 136.634L298.378 164.422L328.283 158.018C333.796 161.081 339.922 163.253 346.549 164.255C375.618 168.543 402.627 148.439 406.915 119.37C411.259 90.3006 391.155 63.2359 362.086 58.9479Z" fill="white"/>
<path d="M295.928 166.65L305.618 136.801C300.271 126.554 298.378 115.082 300.049 103.61C304.448 73.7054 332.404 52.9336 362.309 57.333C392.213 61.7324 412.985 89.6881 408.586 119.593C404.186 149.498 376.231 170.27 346.326 165.87C339.866 164.923 333.74 162.863 328.06 159.744L295.928 166.65ZM328.617 156.236L329.174 156.57C334.631 159.633 340.59 161.638 346.827 162.584C374.95 166.705 401.179 147.214 405.3 119.147C409.421 91.0803 389.93 64.7953 361.863 60.6743C333.74 56.5533 307.511 76.0444 303.39 104.111C301.775 115.138 303.668 126.108 308.903 135.854L309.237 136.467L300.884 162.195L328.617 156.236Z" fill="#399FFF"/>
<path d="M342.261 111.184L350.892 119.593L365.372 103.499L342.261 111.184Z" fill="white"/>
<path d="M350.949 121.598L341.314 112.186L343.264 110.237L350.782 117.588L364.314 102.608L366.374 104.446L350.949 121.598Z" fill="#2E2E76"/>
<path d="M374.282 132.011H333.351V91.0803H374.282V132.011ZM336.135 129.227H371.497V93.8648H336.135V129.227Z" fill="#2E2E76"/>
<path d="M355.155 273.85C355.155 273.85 347.915 273.293 343.46 286.659C343.46 286.659 339.005 298.91 345.131 307.82L356.269 310.048L364.622 277.192L355.155 273.85Z" fill="#2E2E76"/>
<path d="M366.85 281.09L342.848 270.62C342.848 270.62 338.448 261.265 338.504 251.018C338.504 251.018 327.812 251.352 331.098 265.497C331.098 265.497 317.175 257.979 315.449 269.618C315.449 269.618 310.103 280.254 314.447 285.099C318.79 289.944 334.272 293.787 344.129 291.893L360.223 301.862L366.85 281.09Z" fill="white"/>
<path d="M360.223 303.254C360.39 303.254 360.557 303.198 360.724 303.142C361.114 302.975 361.448 302.641 361.559 302.251L368.186 281.479C368.409 280.811 368.075 280.087 367.407 279.753L343.906 269.451C343.071 267.446 339.841 259.427 339.896 250.962C339.896 250.572 339.729 250.238 339.451 249.96C339.172 249.681 338.838 249.57 338.448 249.57C338.281 249.57 333.938 249.737 331.209 253.357C329.371 255.751 328.703 259.037 329.204 263.102C326.42 262.044 321.853 260.819 318.345 262.545C316.006 263.715 314.558 265.942 314.057 269.172C313.277 270.787 308.766 280.867 313.389 286.046C318.122 291.281 333.826 295.067 343.795 293.341L359.443 303.031C359.721 303.198 359.944 303.254 360.223 303.254ZM365.123 281.869L359.387 299.745L344.797 290.724C344.519 290.557 344.129 290.501 343.795 290.557C333.993 292.45 319.292 288.496 315.449 284.208C312.442 280.811 315.282 273.015 316.674 270.23C316.73 270.119 316.786 269.952 316.786 269.841C317.12 267.39 318.066 265.831 319.626 265.107C322.911 263.436 328.536 265.72 330.429 266.722C330.931 267 331.487 266.945 331.933 266.611C332.378 266.276 332.545 265.72 332.434 265.163C331.376 260.708 331.71 257.311 333.381 255.083C334.495 253.635 335.998 252.967 337.112 252.633C337.446 262.378 341.344 270.787 341.567 271.177C341.734 271.455 341.957 271.734 342.291 271.845L365.123 281.869Z" fill="#2E2E76"/>
<path d="M328.202 276.579C329.427 276.579 330.429 276.356 331.209 276.022C332.935 275.298 334.105 273.85 334.327 272.124C334.439 271.344 334.717 269.172 325.139 266.499C324.415 266.277 323.635 266.722 323.412 267.446C323.19 268.17 323.635 268.95 324.359 269.172C327.478 270.063 330.652 271.344 331.432 272.068C331.32 272.458 330.986 273.071 330.039 273.46C328.759 274.017 324.805 274.63 316.229 268.504C315.616 268.059 314.725 268.226 314.28 268.838C313.834 269.451 314.001 270.342 314.614 270.787C320.906 275.298 325.25 276.579 328.202 276.579Z" fill="#2E2E76"/>
<path d="M328.871 281.424C331.098 281.424 332.602 280.811 333.437 279.53C334.941 277.247 333.103 274.073 332.936 273.739C332.546 273.07 331.655 272.848 331.042 273.293C330.374 273.683 330.151 274.518 330.597 275.187C330.987 275.855 331.599 277.414 331.154 278.027C330.875 278.472 329.65 278.862 327.2 278.528C319.069 277.47 315.171 273.015 315.115 272.959C314.614 272.402 313.723 272.347 313.166 272.848C312.61 273.349 312.554 274.24 313.055 274.797C313.222 275.02 317.733 280.032 326.866 281.257C327.534 281.368 328.202 281.424 328.871 281.424Z" fill="#2E2E76"/>
<path d="M325.918 285.155C327.756 285.155 329.093 284.654 329.817 283.596C331.042 281.925 330.095 279.809 329.984 279.586C329.65 278.862 328.814 278.584 328.146 278.918C327.478 279.252 327.144 280.087 327.478 280.756C327.589 281.034 327.756 281.758 327.589 282.036C327.422 282.315 326.642 282.538 325.083 282.371C319.737 281.814 313.778 277.915 313.723 277.86C313.054 277.414 312.219 277.637 311.774 278.25C311.328 278.918 311.551 279.753 312.163 280.199C312.442 280.366 318.735 284.542 324.805 285.155C325.139 285.155 325.529 285.155 325.918 285.155Z" fill="#2E2E76"/>
<path d="M321.353 288.162C322.745 288.162 323.97 287.884 325.028 287.382C327.256 286.324 327.868 284.542 327.924 284.32C328.147 283.596 327.757 282.816 327.033 282.593C326.309 282.371 325.529 282.76 325.306 283.484C325.306 283.54 324.917 284.375 323.747 284.932C322.411 285.545 319.793 285.823 315.004 283.874C314.28 283.596 313.5 283.93 313.166 284.654C312.888 285.378 313.222 286.157 313.946 286.491C316.786 287.605 319.236 288.162 321.353 288.162Z" fill="#2E2E76"/>
<path d="M438.689 375.203C438.689 375.203 441.473 406.389 498.498 407.28C527.066 407.726 552.795 403.382 557.862 384.67L552.293 361.281L441.974 364.623L438.689 375.203Z" fill="#399FFF"/>
<path d="M541.1 352.371C541.1 352.371 544.942 353.652 551.513 389.126L558.586 442.587H497.83L468.148 352.371H541.1Z" fill="#2E2E76"/>
<path d="M445.371 352.093C445.371 352.093 442.53 405.832 439.078 442.587H519.604L502.618 356.659L445.371 352.093Z" fill="#2E2E76"/>
<path d="M475.453 374.481L499.162 442.117L496.534 443.038L472.826 375.402L475.453 374.481Z" fill="white"/>
<path d="M506.684 248.846L503.342 210.087L499.277 176.952L466.254 178.289C466.254 178.289 446.651 226.348 476.389 222.784L475.776 250.795L506.684 248.846Z" fill="white"/>
<path d="M474.329 252.243L508.188 250.127L504.679 209.92L500.447 175.448L465.252 176.841L464.917 177.676C464.416 178.901 452.944 207.525 461.91 219.331C464.695 222.951 469.038 224.622 474.886 224.287L474.329 252.243ZM505.18 247.565L477.169 249.292L477.782 221.225L476.167 221.392C470.542 222.06 466.532 220.835 464.138 217.66C456.898 208.138 465.363 184.359 467.201 179.625L497.996 178.4L501.895 210.254L505.18 247.565Z" fill="#2E2E76"/>
<path d="M453.223 176.618C452.276 170.158 463.024 169.935 463.024 169.935C459.905 168.989 458.959 167.206 459.237 165.814C460.796 157.684 475.944 164.199 475.944 164.199C474.162 160.468 477.726 160.301 477.726 160.301C483.573 160.078 493.597 164.756 500.502 168.432C502.897 168.654 533.192 172.441 505.403 215.433C505.403 215.433 495.936 217.939 495.88 201.288C495.88 201.288 501.171 193.324 493.82 191.487C492.427 191.153 490.924 191.654 490.033 192.768C488.808 194.327 488.084 195.663 487.75 196.554C487.471 197.223 486.747 197.668 486.023 197.668H485.968C484.965 197.612 484.241 196.777 484.241 195.775L484.52 189.204C471.266 187.811 454.392 184.526 453.223 176.618Z" fill="#2E2E76"/>
<path d="M507.186 226.515C507.186 226.515 477.392 252.187 475.443 229.856L460.351 237.875C455.618 240.381 451.608 244.057 448.657 248.512L423.096 287.772L354.599 273.85C354.599 273.85 357.495 278.194 355.378 290.111C352.928 303.922 344.575 307.82 344.575 307.82L445.371 336.778L438.689 375.203C438.689 375.203 444.814 366.516 495.491 369.078C539.485 371.305 557.974 384.671 557.974 384.671C557.974 384.671 553.574 303.978 555.078 273.293C556.192 251.018 541.713 243.221 541.713 243.221L507.186 226.515Z" fill="#2563F6"/>
<path d="M444.814 315.617C444.814 315.617 430.335 335.665 443.143 353.485C443.143 353.485 450.939 346.245 452.554 332.602C452.554 332.657 453.167 320.072 444.814 315.617Z" fill="#2E2E76"/>
<path d="M365.737 284.988C361.838 289.443 357.383 292.227 357.383 292.227C357.383 292.227 365.18 298.353 379.659 305.036C386.843 308.377 410.232 316.452 410.232 316.452L427.161 286.213L381.218 262.601C381.162 262.601 370.47 279.586 365.737 284.988Z" fill="#2E2E76"/>
<path d="M360 279.976C360 279.976 374.868 259.427 383.667 241.718C383.667 241.718 402.88 264.383 454.002 292.673C454.002 292.673 443.867 323.691 436.182 331.878C436.237 331.878 376.595 302.53 360 279.976Z" fill="white"/>
<path d="M436.238 333.27C436.627 333.27 436.962 333.103 437.24 332.824C445.036 324.527 454.949 294.399 455.339 293.118C455.562 292.506 455.283 291.782 454.671 291.448C404.328 263.604 384.893 241.05 384.726 240.827C384.447 240.493 383.946 240.27 383.501 240.326C383.055 240.381 382.61 240.66 382.442 241.105C373.811 258.48 359.053 278.918 358.886 279.141C358.552 279.642 358.552 280.31 358.886 280.756C375.481 303.309 433.175 331.878 435.625 333.103C435.848 333.214 436.015 333.27 436.238 333.27ZM452.332 293.341C450.55 298.687 442.363 322.244 435.904 330.151C428.274 326.309 377.542 300.302 361.726 279.92C364.511 276.022 376.205 259.26 384.002 244.112C389.292 249.681 409.73 269.618 452.332 293.341Z" fill="#2E2E76"/>
<path d="M449.492 320.963L427.105 316.341L416.859 300.971C415.801 299.356 413.35 299.578 412.571 301.36C411.624 303.532 411.346 307.263 413.963 313.723C413.963 313.723 410.009 317.677 402.825 315.672L387.399 306.818C387.399 306.818 385.45 317.343 396.922 326.198C407.893 334.662 418.585 334.05 418.585 334.05L448.379 343.907C448.379 343.907 451.497 338.449 452.277 332.323C453.168 325.139 449.492 320.963 449.492 320.963Z" fill="white"/>
<path d="M448.991 345.633L449.548 344.63C449.659 344.408 452.833 338.839 453.613 332.546C454.615 324.805 450.661 320.239 450.494 320.072L450.16 319.738L427.885 315.171L418.028 300.247C417.248 299.077 415.912 298.409 414.519 298.576C413.127 298.687 411.902 299.578 411.345 300.859C410.064 303.866 410.343 308.043 412.348 313.333C411.067 314.169 408.06 315.672 403.382 314.447L386.397 304.702L386.063 306.651C385.951 307.096 384.058 318.123 396.086 327.367C406.5 335.386 416.58 335.553 418.418 335.553L448.991 345.633ZM448.712 322.188C449.492 323.246 451.608 326.754 450.884 332.156C450.327 336.444 448.601 340.398 447.654 342.236L418.752 332.657H418.473C418.362 332.657 408.115 333.103 397.757 325.084C390.016 319.069 388.736 312.442 388.624 309.157L402.268 317.009L402.435 317.065C410.343 319.236 414.742 314.893 414.965 314.726L415.633 314.057L415.299 313.222C412.793 306.985 413.183 303.644 413.907 301.973C414.13 301.472 414.575 301.36 414.798 301.36C414.965 301.36 415.466 301.36 415.745 301.806L426.325 317.621L448.712 322.188Z" fill="#2E2E76"/>
<path d="M527.4 360.001C534.751 360.001 541.378 355.1 543.438 347.972L554.743 308.767L552.07 307.987L540.765 347.192C538.928 353.485 532.913 357.662 526.398 357.16L447.264 351.146C454.337 339.618 454.392 330.875 453.167 325.474C452.387 322.244 451.107 319.793 449.993 318.123L508.243 318.178L523.613 256.03L520.884 255.362L506.016 315.45L443.422 315.394L446.039 317.844C446.54 318.29 458.29 329.65 443.589 351.703L442.252 353.708L526.064 360.056C526.565 360.001 527.01 360.001 527.4 360.001Z" fill="#2E2E76"/>
<path d="M389.125 257.7L389.682 262.712L381.328 263.659L389.125 257.7Z" fill="white"/>
<path d="M381.496 265.051L391.241 263.993L390.517 257.589L387.733 257.868L388.123 261.487L381.162 262.267L381.496 265.051Z" fill="#2E2E76"/>
<path d="M400.82 267.724L401.377 272.736L393.024 273.683L400.82 267.724Z" fill="white"/>
<path d="M393.191 275.075L402.937 274.017L402.213 267.613L399.428 267.891L399.818 271.511L392.857 272.291L393.191 275.075Z" fill="#2E2E76"/>
<path d="M414.185 276.078L414.742 281.09L406.389 282.036L414.185 276.078Z" fill="white"/>
<path d="M406.556 283.429L416.302 282.371L415.578 275.966L412.793 276.245L413.183 279.865L406.222 280.644L406.556 283.429Z" fill="#2E2E76"/>
<path d="M377.987 268.838L372.418 276.078L377.987 268.838Z" fill="white"/>
<path d="M376.91 267.99L379.117 269.688L373.549 276.927L371.342 275.229L376.91 267.99Z" fill="#2E2E76"/>
<path d="M382.442 272.179L372.975 284.431L382.442 272.179Z" fill="white"/>
<path d="M381.37 271.355L383.573 273.058L374.108 285.308L371.905 283.606L381.37 271.355Z" fill="#2E2E76"/>
<path d="M391.353 278.305L386.341 285.935L391.353 278.305Z" fill="white"/>
<path d="M390.185 277.567L392.511 279.097L387.491 286.727L385.165 285.196L390.185 277.567Z" fill="#2E2E76"/>
<path d="M396.031 281.312L387.511 294.232L396.031 281.312Z" fill="white"/>
<path d="M394.873 280.548L397.195 282.084L388.659 294.998L386.336 293.463L394.873 280.548Z" fill="#2E2E76"/>
<path d="M404.719 287.772L400.264 295.736L404.719 287.772Z" fill="white"/>
<path d="M403.492 287.131L405.922 288.49L401.462 296.461L399.032 295.101L403.492 287.131Z" fill="#2E2E76"/>
<path d="M409.562 290.445L401.989 303.922L409.562 290.445Z" fill="white"/>
<path d="M408.374 289.748L410.801 291.113L403.212 304.607L400.785 303.242L408.374 289.748Z" fill="#2E2E76"/>
<path d="M450.102 268.767L452.88 268.951L451.446 290.567L448.667 290.382L450.102 268.767Z" fill="#2E2E76"/>
</svg>
